<svg xmlns="http://www.w3.org/2000/svg" viewBox="0 0 1200 680" role="img" aria-labelledby="title desc">
  <title id="title">保定城市原创线稿</title>
  <desc id="desc">以保定城市天际线、商务楼、高铁和金融数据线为灵感的原创矢量插画</desc>
  <defs>
    <linearGradient id="sky" x1="0" x2="1" y1="0" y2="1">
      <stop offset="0" stop-color="#f7fbff"/>
      <stop offset="0.62" stop-color="#e7f1fb"/>
      <stop offset="1" stop-color="#dbeaf7"/>
    </linearGradient>
    <linearGradient id="glass" x1="0" x2="0" y1="0" y2="1">
      <stop offset="0" stop-color="#d8e9f9"/>
      <stop offset="1" stop-color="#adcce8"/>
    </linearGradient>
    <linearGradient id="redLine" x1="0" x2="1">
      <stop offset="0" stop-color="#df1f2d"/>
      <stop offset="1" stop-color="#ff7a00"/>
    </linearGradient>
    <filter id="softShadow" x="-20%" y="-20%" width="140%" height="140%">
      <feDropShadow dx="0" dy="18" stdDeviation="18" flood-color="#07192f" flood-opacity="0.18"/>
    </filter>
  </defs>

  <rect width="1200" height="680" rx="24" fill="url(#sky)"/>
  <path d="M0 492C185 420 337 428 508 470C696 517 841 474 1008 422C1083 399 1145 391 1200 396V680H0Z" fill="#ffffff" opacity="0.72"/>
  <path d="M0 560C164 516 318 520 484 552C692 592 895 548 1200 500V680H0Z" fill="#cfe0ef"/>

  <g transform="translate(90 88)" filter="url(#softShadow)">
    <rect x="0" y="210" width="108" height="310" rx="14" fill="url(#glass)"/>
    <rect x="138" y="120" width="138" height="400" rx="18" fill="#b9d5ef"/>
    <rect x="308" y="245" width="92" height="275" rx="14" fill="#c7ddf2"/>
    <rect x="430" y="88" width="164" height="432" rx="18" fill="#a9cce8"/>
    <rect x="626" y="180" width="120" height="340" rx="16" fill="#c1d9ef"/>
    <rect x="782" y="134" width="150" height="386" rx="18" fill="#aacce7"/>
    <rect x="960" y="260" width="88" height="260" rx="14" fill="#c9dff2"/>
    <g fill="#ffffff" opacity="0.82">
      <path d="M22 244h18v28H22zM62 244h18v28H62zM22 302h18v28H22zM62 302h18v28H62zM22 360h18v28H22zM62 360h18v28H62z"/>
      <path d="M164 154h22v30h-22zM214 154h22v30h-22zM164 218h22v30h-22zM214 218h22v30h-22zM164 282h22v30h-22zM214 282h22v30h-22zM164 346h22v30h-22zM214 346h22v30h-22z"/>
      <path d="M456 126h26v34h-26zM532 126h26v34h-26zM456 204h26v34h-26zM532 204h26v34h-26zM456 282h26v34h-26zM532 282h26v34h-26zM456 360h26v34h-26zM532 360h26v34h-26z"/>
      <path d="M812 172h24v32h-24zM878 172h24v32h-24zM812 248h24v32h-24zM878 248h24v32h-24zM812 324h24v32h-24zM878 324h24v32h-24z"/>
    </g>
  </g>

  <g transform="translate(92 452)">
    <path d="M0 62H1020" stroke="#123d68" stroke-width="8" stroke-linecap="round" opacity="0.22"/>
    <path d="M120 42h450c70 0 122 30 190 30h152" fill="none" stroke="#123d68" stroke-width="15" stroke-linecap="round" opacity="0.5"/>
    <rect x="230" y="16" width="142" height="42" rx="18" fill="#ffffff" stroke="#b7cce0"/>
    <rect x="742" y="22" width="128" height="36" rx="16" fill="#ffffff" stroke="#b7cce0"/>
    <circle cx="270" cy="37" r="8" fill="#df1f2d"/>
    <circle cx="826" cy="40" r="8" fill="#df1f2d"/>
  </g>

  <g transform="translate(165 165)">
    <path d="M0 170C70 138 132 152 198 112C274 67 339 89 403 44C458 7 524 23 596 0" fill="none" stroke="url(#redLine)" stroke-width="12" stroke-linecap="round"/>
    <circle cx="0" cy="170" r="12" fill="#df1f2d"/>
    <circle cx="198" cy="112" r="12" fill="#df1f2d"/>
    <circle cx="403" cy="44" r="12" fill="#df1f2d"/>
    <circle cx="596" cy="0" r="12" fill="#df1f2d"/>
  </g>

  <g transform="translate(716 78)">
    <rect width="362" height="160" rx="18" fill="#ffffff" opacity="0.84"/>
    <text x="28" y="48" fill="#0b2545" font-size="24" font-weight="800" font-family="Microsoft YaHei, PingFang SC, Arial">保定 · 京津冀视野</text>
    <text x="28" y="91" fill="#667085" font-size="18" font-family="Microsoft YaHei, PingFang SC, Arial">专业平台 · 本地市场 · 长期成长</text>
    <path d="M28 120h298" stroke="#d9e4f2" stroke-width="2"/>
    <path d="M28 137h172" stroke="#df1f2d" stroke-width="7" stroke-linecap="round"/>
  </g>
</svg>
